<?xml version="1.0" encoding="UTF-8"?>
<svg id="Layer_1" data-name="Layer 1" xmlns="http://www.w3.org/2000/svg" viewBox="0 0 101 64">
  <defs>
    <style>
      .cls-1 {
        isolation: isolate;
      }

      .cls-2 {
        fill: #2edec0;
      }

      .cls-2, .cls-3 {
        stroke-width: 0px;
      }

      .cls-3 {
        fill: #fff;
      }
    </style>
  </defs>
  <g class="cls-1">
    <g class="cls-1">
      <path class="cls-2" d="m8.61,44.33c-.31-.26-.46-.56-.46-.92,0-.18.02-.4.07-.66s.11-.55.18-.86c.21-.95.4-1.9.54-2.86.33-2.05.63-4.15.89-6.28.46-3.71.76-6.37.9-7.99s.23-2.85.26-3.71c.02-.37.03-.59.04-.66.05-.39.22-.7.53-.92.3-.22.7-.33,1.2-.33.45,0,.82.13,1.11.39.29.26.44.58.44.97,0,.14-.07.5-.21,1.1-.17.64-.29,1.24-.38,1.77-.18,1.08-.38,2.46-.61,4.12s-.44,3.34-.64,5.04c-.53,4.66-.83,7.92-.89,9.77-.04.59-.07.97-.09,1.14-.05.39-.23.7-.54.93-.31.23-.72.34-1.23.34-.44,0-.81-.13-1.12-.39Z"/>
      <path class="cls-2" d="m17.42,44.38c-.29-.22-.44-.55-.44-.98,0-.21.05-.58.15-1.14.1-.55.16-.88.18-.97.07-.36.16-.87.26-1.52.15-.97.3-2.07.47-3.3.05-.32.1-.66.15-1.03s.1-.75.16-1.16c.31-2.2.47-4.21.47-6.04,0-.45.15-.81.45-1.09.3-.28.7-.42,1.19-.42.46,0,.84.12,1.14.35s.45.56.45.98c0,.26-.04.66-.13,1.19s-.19,1.1-.31,1.71c-.03.17-.12.64-.26,1.43s-.26,1.54-.35,2.26c-.21,1.61-.39,3.25-.56,4.91s-.25,2.91-.25,3.74c0,.39-.15.72-.46,1s-.72.41-1.22.41c-.42,0-.78-.11-1.07-.34Zm2.41-20.35c-.24-.23-.36-.59-.36-1.08,0-.18.01-.37.04-.59.1-.67.31-1.18.64-1.53s.76-.52,1.31-.52c.5,0,.9.1,1.19.3.3.2.42.46.37.77-.03.19-.07.33-.12.42l-.09.18c-.09.14-.15.28-.18.44-.02.09-.04.26-.06.51l-.04.51c-.05.31-.2.54-.46.7s-.65.23-1.16.23c-.49,0-.85-.11-1.09-.34Z"/>
      <path class="cls-2" d="m28.6,42.4c-.76-1.74-1.32-3.85-1.67-6.35-.35-2.49-.53-4.89-.53-7.18,0-.6.14-1.1.43-1.51s.76-.62,1.43-.62c.46,0,.83.14,1.11.42s.42.62.42,1c0,.19-.02.44-.07.77-.04.33-.07.54-.08.65-.09.68-.16,1.26-.21,1.73s-.07.98-.07,1.52c0,1.66.12,3.24.37,4.75.24,1.51.55,2.72.92,3.64s.72,1.38,1.05,1.38c.29,0,.73-.42,1.33-1.25s1.21-1.98,1.85-3.46c.64-1.48,1.19-3.15,1.64-5.02.14-.6.26-1.22.36-1.86s.22-1.46.36-2.46c.08-.59.26-1.04.56-1.35s.69-.47,1.19-.47c.46,0,.82.13,1.08.38s.39.62.39,1.1c0,.16,0,.33-.03.52-.02.19-.04.34-.07.46-.63,2.97-1.45,5.66-2.44,8.06s-2.05,4.3-3.18,5.68-2.2,2.07-3.23,2.07c-1.17,0-2.14-.87-2.9-2.61Z"/>
    </g>
  </g>
  <g class="cls-1">
    <g class="cls-1">
      <path class="cls-3" d="m49.8,36.41h-3.38v7.55h-4.25v-20.62h7.66c2.44,0,4.31.54,5.64,1.63,1.32,1.08,1.98,2.62,1.98,4.6,0,1.41-.3,2.58-.91,3.52-.61.94-1.53,1.69-2.77,2.25l4.46,8.42v.2h-4.56l-3.87-7.55Zm-3.38-3.44h3.43c1.07,0,1.89-.27,2.48-.81.59-.54.88-1.29.88-2.24s-.28-1.74-.83-2.29c-.55-.56-1.4-.83-2.54-.83h-3.41v6.19Z"/>
      <path class="cls-3" d="m67.46,44.24c-2.25,0-4.08-.69-5.49-2.07s-2.12-3.21-2.12-5.51v-.4c0-1.54.3-2.91.89-4.13s1.44-2.15,2.53-2.8c1.09-.66,2.33-.98,3.73-.98,2.1,0,3.75.66,4.95,1.98,1.2,1.32,1.81,3.2,1.81,5.62v1.67h-9.76c.13,1,.53,1.8,1.2,2.41.67.6,1.51.91,2.53.91,1.58,0,2.81-.57,3.7-1.71l2.01,2.25c-.61.87-1.44,1.55-2.49,2.03s-2.21.73-3.48.73Zm-.47-12.59c-.81,0-1.47.27-1.98.82-.5.55-.83,1.34-.97,2.36h5.69v-.33c-.02-.91-.26-1.61-.74-2.11-.47-.5-1.14-.75-2.01-.75Z"/>
      <path class="cls-3" d="m84.96,43.96c-.19-.37-.33-.83-.41-1.37-.99,1.1-2.28,1.66-3.87,1.66-1.5,0-2.75-.43-3.73-1.3s-1.48-1.96-1.48-3.29c0-1.62.6-2.87,1.81-3.74,1.2-.87,2.94-1.31,5.22-1.32h1.88v-.88c0-.71-.18-1.27-.54-1.7-.36-.42-.94-.64-1.72-.64-.69,0-1.23.17-1.62.5-.39.33-.59.78-.59,1.36h-4.09c0-.89.27-1.71.82-2.46.55-.75,1.32-1.35,2.32-1.78,1-.43,2.12-.64,3.37-.64,1.89,0,3.39.47,4.5,1.42,1.11.95,1.66,2.28,1.66,4v6.64c0,1.45.21,2.55.61,3.3v.24h-4.13Zm-3.38-2.85c.6,0,1.16-.13,1.67-.4.51-.27.89-.63,1.13-1.08v-2.63h-1.53c-2.05,0-3.14.71-3.27,2.12v.24c-.01.51.17.93.52,1.26.36.33.85.5,1.47.5Z"/>
      <path class="cls-3" d="m95.95,43.96h-4.11v-21.75h4.11v21.75Z"/>
    </g>
  </g>
</svg>